<svg xmlns="http://www.w3.org/2000/svg" width="65.316" height="70" fill="none"><path fill="#212121" d="M64.97 48.33 46.5 29.73l2.05-10.1c.53.21 1.09.32 1.66.32h.01c2.61.03 4.75-2.06 4.78-4.67.03-2.6-2.06-4.74-4.67-4.77a4.714 4.714 0 0 0-4.77 4.66c-.01.56.08 1.12.27 1.64l-10.85 1.33L17.28.35a1.12 1.12 0 0 0-.82-.35c-.31 0-.6.12-.82.33l-3.31 3.29c-.45.46-.45 1.2 0 1.65l1.78 1.81c-6.9 12.68-4.66 28.39 5.51 38.64.1.09.2.16.32.21-.07.4-.11.8-.11 1.2v13.53h-14A5.845 5.845 0 0 0 0 66.5v2.33C0 69.47.52 70 1.16 70h53.67c.64 0 1.17-.53 1.17-1.17V66.5a5.86 5.86 0 0 0-5.84-5.84h-14v-6c2.19.46 4.43.7 6.67.7 5.38 0 10.67-1.34 15.4-3.9l1.79 1.8c.22.22.51.35.82.35.31 0 .6-.12.82-.34l3.31-3.29c.45-.45.45-1.19 0-1.65Zm-16.39-34.7c.91-.91 2.39-.9 3.3.01.91.91.9 2.39-.01 3.3-.44.43-1.03.68-1.65.68a2.35 2.35 0 0 1-2.33-2.35c.01-.61.25-1.21.69-1.64Zm-2.75 7.67-1.31 6.44-2.57-2.59 3.88-3.85Zm-1.32-1.98-4.2 4.18-3.25-3.27 7.45-.91ZM50.16 63c1.93 0 3.5 1.56 3.5 3.5v1.16H2.33V66.5c0-1.94 1.57-3.5 3.5-3.5h44.33Zm-16.33-4.67v2.33H22.16v-2.33h11.67ZM22.16 56v-8.87C22.16 44.3 24.78 42 28 42c3.21 0 5.83 2.3 5.83 5.13V56H22.16Zm14-3.71v-5.16c0-4.12-3.66-7.47-8.16-7.47a8.316 8.316 0 0 0-7.18 3.91c-8.88-9.35-10.88-23.29-4.99-34.75l40.69 40.92a30.21 30.21 0 0 1-20.36 2.55Zm24.7-1.5-1.65-1.65L16.45 6.11l-1.66-1.65 1.66-1.65L33.8 20.27c.01 0 .02.01.02.02l28.69 28.85-1.65 1.65Z"/><path fill="#2196F3" d="M28.01 44.33h-.02c-1.93 0-3.5 1.56-3.5 3.49 0 1.94 1.56 3.51 3.49 3.51h.01a3.5 3.5 0 0 0 3.51-3.5c0-1.93-1.56-3.5-3.49-3.5Zm.81 4.33c-.22.21-.52.34-.83.34-.64-.01-1.16-.53-1.16-1.18.01-.31.13-.6.35-.82.22-.21.51-.34.81-.34.65.01 1.17.53 1.17 1.17-.01.31-.13.61-.35.83h.01Z"/></svg>