<svg xmlns="http://www.w3.org/2000/svg" width="70" height="53.687" fill="none"><path fill="#212121" d="M3.49 53.68h55.97c1.94 0 3.5-1.56 3.5-3.5v-4.66c0-1.93-1.56-3.5-3.5-3.5H58.3V12.94l6.62-6.27c1.54.76 3.4.3 4.41-1.09 1-1.39.86-3.3-.34-4.53a3.523 3.523 0 0 0-4.52-.43c-1.4.98-1.91 2.83-1.18 4.38L58.3 9.73V7.04c0-1.93-1.57-3.5-3.5-3.5H8.16c-1.93 0-3.5 1.57-3.5 3.5v34.98H3.49c-1.93 0-3.49 1.57-3.49 3.5v4.66c0 1.94 1.56 3.5 3.49 3.5Zm62.97-51.3c.64 0 1.17.52 1.17 1.16 0 .65-.53 1.17-1.17 1.17-.64 0-1.17-.52-1.17-1.17 0-.64.53-1.16 1.17-1.16ZM6.99 7.04c0-.64.52-1.17 1.17-1.17H54.8c.64 0 1.17.53 1.17 1.17v4.9l-2.34 2.21V9.37c0-.64-.52-1.16-1.16-1.16H10.49c-.64 0-1.17.52-1.17 1.16v29.15c0 .65.53 1.17 1.17 1.17h41.98c.64 0 1.16-.52 1.16-1.17V17.36l2.34-2.21v26.87H6.99V7.04Zm10.5 15.16a3.5 3.5 0 1 0 2.42 6.01l4.05 2.03c.47.24 1.04.13 1.39-.26l8.62-9.7 8.47 6.35c.45.34 1.09.3 1.5-.09l7.36-6.97v17.79H11.66V10.54H51.3v5.82l-8.25 7.81-8.54-6.4c-.48-.37-1.17-.3-1.57.16l-8.74 9.82-3.26-1.63c.02-.14.04-.28.04-.42 0-1.93-1.56-3.5-3.49-3.5Zm1.16 3.5c0 .64-.52 1.16-1.16 1.16a1.165 1.165 0 1 1 1.16-1.16Zm7 18.65h11.66v1.17c0 .64-.52 1.17-1.17 1.17h-9.33c-.64 0-1.16-.53-1.16-1.17v-1.17ZM2.33 45.52c0-.64.52-1.17 1.16-1.17h19.83v1.17c0 1.93 1.56 3.5 3.49 3.5h9.33c1.93 0 3.5-1.57 3.5-3.5v-1.17h19.82c.65 0 1.17.53 1.17 1.17v4.66c0 .65-.52 1.17-1.17 1.17H3.49c-.64 0-1.16-.52-1.16-1.17v-4.66Z"/></svg>