<svg xmlns="http://www.w3.org/2000/svg" width="70" height="70" fill="none"><defs><clipPath id="a"><path fill="#fff" fill-opacity="0" d="M0 0h70v70H0z"/></clipPath></defs><path fill="none" d="M0 0h70v70H0z"/><g clip-path="url(#a)"><path fill="#2196F3" d="M69.94 9.89c-.14-.42-.5-.73-.94-.79l-4.18-.61-1.87-3.79c-.39-.79-1.7-.79-2.09 0l-1.87 3.79-4.18.61c-.44.06-.81.37-.95.79-.13.42-.02.89.3 1.2l3.02 2.95-.71 4.16c-.07.44.11.88.46 1.14.37.26.84.3 1.23.09l3.74-1.97 3.74 1.97c.17.09.36.13.54.13a1.157 1.157 0 0 0 1.15-1.36l-.71-4.16 3.02-2.95c.32-.31.43-.78.3-1.2Zm-5.39 2.9c-.27.27-.4.66-.33 1.04l.41 2.43-2.19-1.15c-.17-.09-.35-.13-.54-.13-.19 0-.37.04-.54.13l-2.19 1.15.42-2.43c.06-.38-.06-.77-.34-1.04l-1.77-1.72 2.45-.36c.38-.05.71-.29.88-.64l1.09-2.21 1.09 2.21c.17.35.5.59.88.64l2.45.36-1.77 1.72Z"/><path fill="#2196F3" fill-rule="evenodd" d="M54.83 44.89h2.33v2.33h-2.33v-2.33ZM54.83 49.55h2.33v2.34h-2.33v-2.34ZM57.16 47.22h2.34v2.33h-2.34v-2.33ZM52.5 47.22h2.33v2.33H52.5v-2.33ZM46.66 57.72H49v2.33h-2.34v-2.33ZM46.66 62.39H49v2.33h-2.34v-2.33ZM49 60.05h2.33v2.34H49v-2.34ZM44.33 60.05h2.33v2.34h-2.33v-2.34ZM32.66 53.05H35v2.34h-2.34v-2.34ZM32.66 57.72H35v2.33h-2.34v-2.33ZM35 55.39h2.33v2.33H35v-2.33ZM30.33 55.39h2.33v2.33h-2.33v-2.33ZM10.49 13.39h2.34v2.33h-2.34v-2.33ZM10.49 18.05h2.34v2.34h-2.34v-2.34ZM12.83 15.72h2.33v2.33h-2.33v-2.33ZM8.16 15.72h2.33v2.33H8.16v-2.33Z"/><path fill="#212121" d="M54.06 30.97c-.63-.85-1.55-1.4-2.6-1.54-1.05-.15-2.09.12-2.93.77l-2.74 2.1-4.15 3.1-2.97-1.19c5.29-2.37 9-7.67 9-13.82 0-8.36-6.83-15.17-15.23-15.17s-15.23 6.81-15.23 15.17c0 3.03.91 5.85 2.45 8.22l-6.04-.05h-.02c-.01 0-.03.01-.05.01-.11 0-.23.03-.34.07-.02.01-.05.01-.08.03-.01 0-.03 0-.04.01l-7.07 3.49h-.01l-4.14 1.99c-.04.02-.09.05-.14.08a3.9 3.9 0 0 0-1.31 5.02c.49.94 1.31 1.63 2.31 1.95.39.12.79.18 1.18.18.64 0 1.27-.16 1.84-.46l3.04-1.62 4.95-2.56 2.97-.01L4.8 48.58v.01L1.87 51.5C1.18 52.19.8 53.1.8 54.08c0 .97.38 1.89 1.07 2.58a3.666 3.666 0 0 0 5.16 0l2.88-2.87 3.81-2.84 1.97 1.96-3.86 3.84-2.93 2.92c-.69.69-1.07 1.6-1.07 2.58 0 .97.38 1.88 1.07 2.57.71.71 1.65 1.07 2.58 1.07.94 0 1.87-.36 2.58-1.07l2.93-2.91 4.69-4.67 2.21-2.19-.01-.01c.02-.01.04-.02.05-.03l11.3-12.38 7.59 1.08c.06.01.11.01.17.01.14 0 .28-.03.41-.08.04-.02.07-.03.11-.05l.12-.06 7.03-4.67c.03-.02.04-.04.07-.06.02-.03.06-.03.08-.06l2.78-2.6a3.898 3.898 0 0 0 .47-5.17Zm-49.4 7.9a1.6 1.6 0 0 1-2.16-.67c-.35-.69-.15-1.52.47-1.98l2.87-1.38.69 2.02.3.85-2.17 1.16Zm7.65-4-3.39 1.75-.56-1.63-.4-1.18 4.43-2.19-.08 3.25Zm33.03-14.48c0 2.01-.48 3.9-1.31 5.6l-9.15-4.16c-.1-1.25-.75-2.35-1.73-3.03l3.21-10.64c5.2 1.66 8.98 6.51 8.98 12.23Zm-25.79 0c0-7.08 5.78-12.84 12.89-12.84.55 0 1.1.05 1.63.12l-3.13 10.4c-.04 0-.08-.02-.13-.02-2.26 0-4.09 1.84-4.09 4.09s1.83 4.08 4.09 4.08c1.52 0 2.84-.84 3.54-2.07l8.45 3.84c-2.35 3.17-6.11 5.23-10.36 5.23-7.11 0-12.89-5.76-12.89-12.83Zm13.03 1.75c0 .96-.79 1.75-1.77 1.75-.97 0-1.76-.79-1.76-1.75 0-.97.79-1.75 1.76-1.75.98 0 1.77.78 1.77 1.75ZM5.39 55c-.52.51-1.36.51-1.87 0a1.27 1.27 0 0 1-.39-.92c0-.35.14-.68.39-.92l2.1-2.1 1.86 1.85L5.39 55Zm7.03 8.17c-.52.51-1.36.51-1.87 0-.25-.25-.39-.58-.39-.92 0-.35.14-.68.39-.93l2.1-2.09.88.87.99.98-2.1 2.09Zm7.61-7.59-3.86 3.85-.88-.87-.98-.98 3.85-3.84h.01c.08-.09.14-.2.19-.3.02-.03.05-.06.06-.09.04-.09.04-.18.06-.28 0-.05.03-.1.03-.16 0-.08-.03-.15-.05-.23-.01-.07-.01-.14-.04-.21-.04-.11-.12-.2-.2-.3-.02-.02-.03-.06-.05-.08-.01 0-.01 0-.01-.01l-3.51-3.5c-.04-.03-.09-.05-.13-.08-.06-.05-.12-.09-.19-.13-.07-.03-.13-.05-.2-.07-.08-.02-.15-.03-.23-.04-.07 0-.14 0-.21.01-.08.01-.15.02-.22.04-.08.03-.14.06-.21.1-.04.03-.09.04-.13.07l-3.88 2.89-1.97-1.96 5.24-5.22 9.54 9.38-2.03 2.01Zm14.92-15.35c-.03 0-.07.01-.1.01-.08-.01-.17 0-.25.01-.07.01-.13.03-.19.05-.08.03-.15.06-.22.1-.06.04-.12.08-.18.14-.03.02-.06.03-.08.06L23.65 51.86l-9.47-9.31 6.2-6.17a1.165 1.165 0 0 0-.83-1.99l-4.86.03.06-3.52 6.79.06c2.77 2.83 6.63 4.59 10.9 4.59.96 0 1.89-.1 2.8-.26.09.07.17.14.28.18l5.27 2.1.34 1.66.39 1.94-6.57-.94Zm8.84.39-.69-3.41 3.17-2.36.83 1.1 1.24 1.65-4.55 3.02ZM52 34.43l-1.83 1.72-2.04-2.71 1.82-1.39c.34-.26.77-.37 1.19-.31a1.563 1.563 0 0 1 .86 2.69Z"/><path fill="#212121" d="m29.75 40.56-4.69-4.67c-.45-.45-1.19-.45-1.64 0l-4.69 4.67c-.22.22-.34.52-.34.83 0 .31.12.61.34.82l4.69 4.67c.22.23.52.34.82.34.3 0 .6-.11.82-.34l4.69-4.67c.22-.21.34-.51.34-.82 0-.31-.12-.61-.34-.83Zm-5.51 3.85-3.03-3.02 3.03-3.02 3.03 3.02-3.03 3.02ZM37.54 11.09l-.56 2.26c.15.04 3.8.99 3.8 4.7h2.33c0-4.41-3.64-6.48-5.57-6.96Z"/><path fill="#212121" fill-rule="evenodd" d="M40.78 20.39h2.33v2.33h-2.33v-2.33Z"/></g></svg>