<svg xmlns="http://www.w3.org/2000/svg" width="70" height="70" fill="none"><defs><clipPath id="a"><path fill="#fff" fill-opacity="0" d="M0 0h70v70H0z"/></clipPath></defs><path fill="none" d="M0 0h70v70H0z"/><g clip-path="url(#a)"><path fill="#212121" d="M68.46 33.47C68.45 14.98 53.46-.01 34.97 0 16.48 0 1.5 14.99 1.5 33.48c0 14.57 9.42 27.46 23.29 31.89.14.04.27.06.41.06.27 0 .53-.07.75-.21.3-.17.52-.45.62-.78l8.46-26.79c2.31-.01 4.17-1.9 4.16-4.21a4.187 4.187 0 0 0-4.21-4.16c-.62 0-1.23.14-1.79.42L22.02 18.53c-.55-.54-1.44-.52-1.97.03-.52.54-.52 1.4 0 1.94l11.16 11.17a4.113 4.113 0 0 0 1.17 5.06l-8.05 25.53C8.41 56.4.26 38.74 6.12 22.82 11.99 6.9 29.65-1.26 45.57 4.61c15.92 5.86 24.07 23.52 18.2 39.44a30.682 30.682 0 0 1-16.32 17.44l-.87-4.1c-.16-.75-.9-1.23-1.65-1.07-.24.05-.46.16-.64.32l-8.4 7.5c-.57.51-.62 1.39-.11 1.97.17.18.38.32.62.4l10.71 3.42c.74.23 1.52-.17 1.76-.9.07-.24.09-.48.04-.72l-.86-4.02c12.39-5.23 20.44-17.38 20.41-30.82Zm-33.48-1.4c.77 0 1.39.63 1.39 1.4 0 .77-.62 1.39-1.39 1.39-.77 0-1.4-.62-1.4-1.39 0-.77.63-1.4 1.4-1.4Zm4.59 32.52 4.78-4.27 1.32 6.22-6.1-1.95Z"/><path fill="#2196F3" d="M33.58 6.96v2.79c0 .77.63 1.4 1.4 1.4.77 0 1.39-.63 1.39-1.4V6.96c0-.77-.62-1.39-1.39-1.39-.77 0-1.4.62-1.4 1.39ZM8.47 32.07c-.77 0-1.39.63-1.39 1.4 0 .77.62 1.39 1.39 1.39h2.79c.77 0 1.4-.62 1.4-1.39 0-.77-.63-1.4-1.4-1.4H8.47ZM61.48 34.86c.77 0 1.4-.62 1.4-1.39 0-.77-.63-1.4-1.4-1.4h-2.79c-.77 0-1.39.63-1.39 1.4 0 .77.62 1.39 1.39 1.39h2.79Z"/></g></svg>